<svg viewBox="-85 -6 150 150" fill="currentColor" xmlns="http://www.w3.org/2000/svg" preserveAspectRatio="xMidYMid meet">
  <path d="M0 0 C4.98122155 1.04258126 7.31498584 2.78743041 10.03125 6.9140625 C11.68630963 10.4777796 11.90302306 14.11210635 12 18 C18.83486937 17.15169043 18.83486937 17.15169043 23.9375 12.875 C24.618125 11.92625 25.29875 10.9775 26 10 C26.66 10 27.32 10 28 10 C31.33192852 15.50492539 32.85717709 21.92149613 31.515625 28.3046875 C31.34546875 28.86414063 31.1753125 29.42359375 31 30 C32.73030291 29.71515154 34.45920714 29.42180062 36.1875 29.125 C37.15042969 28.96257813 38.11335938 28.80015625 39.10546875 28.6328125 C41.91032604 28.01960483 44.37224747 27.14333657 47 26 C47.5582789 39.93629542 47.5582789 39.93629542 44 45 C43.01 45.99 43.01 45.99 42 47 C45.77222089 48.75163456 48.666639 49.22490027 52.8125 49.125 C53.78832031 49.10695312 54.76414063 49.08890625 55.76953125 49.0703125 C56.50558594 49.04710937 57.24164063 49.02390625 58 49 C56.65234052 56.91749946 51.512097 61.487903 46 67 C50.0409188 71.69267989 54.26908345 73.7650674 60 76 C57.94092751 80.86313602 54.65563476 82.77065205 50 85 C47.02663761 85.89614477 44.06721208 86.52429813 41 87 C43.69923716 93.26223021 46.52799707 96.94211018 52 101 C51 103 51 103 48.3984375 104.1171875 C44.66246392 105.08768179 41.47830736 105.19770391 37.625 105.125 C36.37976563 105.10695313 35.13453125 105.08890625 33.8515625 105.0703125 C32.91054687 105.04710938 31.96953125 105.02390625 31 105 C32.08896667 110.75762166 33.29336293 116.39247819 35 122 C27.61221054 122.47156103 21.52428894 120.38732834 15 117 C12.45363601 120.7602471 11.45277783 123.83055518 10.8125 128.3125 C10.57466797 129.91544922 10.57466797 129.91544922 10.33203125 131.55078125 C10.22246094 132.35902344 10.11289063 133.16726562 10 134 C3.85458498 131.60178926 -1.03811523 126.92376954 -4 121 C-5.87880872 121.04768403 -5.87880872 121.04768403 -8 122 C-11.73795473 126.53085422 -13.36050263 131.41080442 -15 137 C-20.16102792 134.89528579 -22.42552504 130.75839489 -25 126 C-25.875 122.4375 -25.875 122.4375 -26 120 C-32.26678784 122.29272726 -35.21865269 126.66360157 -39 132 C-42.93391526 128.29749152 -44.80083751 124.53320712 -45.22265625 119.16796875 C-45.29222973 111.58445946 -45.29222973 111.58445946 -44 109 C-50.18876596 111.07026335 -55.77100018 113.04291905 -61 117 C-63.48707455 109.53877636 -61.81752115 102.16012255 -59 95 C-58.34 94.01 -57.68 93.02 -57 92 C-62.94 92 -68.88 92 -75 92 C-76.15228079 88.54315762 -75.63107317 87.33360055 -74.171875 84.10546875 C-72.21482284 80.58929837 -69.76787522 77.42786919 -67.328125 74.234375 C-66.88984375 73.49703125 -66.4515625 72.7596875 -66 72 C-66.66920053 68.9543422 -66.66920053 68.9543422 -68.765625 67.8515625 C-71.15331901 66.94156723 -73.20909095 66.59919786 -75.75 66.375 C-76.54921875 66.30023438 -77.3484375 66.22546875 -78.171875 66.1484375 C-79.07679687 66.07496094 -79.07679687 66.07496094 -80 66 C-78.20422938 60.76233568 -75.88603418 57.21544425 -71.1875 54.1875 C-67.59293037 52.84834661 -64.80582131 52.77165072 -61 53 C-62.47129458 46.17854333 -65.09053551 42.939643 -71 39 C-69.60915583 35.53381244 -68.33959746 34.26204332 -64.9375 32.75 C-60.26949483 30.82388136 -56.0029046 30.35480511 -51 31 C-50.34 31.33 -49.68 31.66 -49 32 C-51.73005848 24.54857957 -51.73005848 24.54857957 -58 20 C-58 19.34 -58 18.68 -58 18 C-47.79880635 14.92039437 -39.00161819 15.35515866 -29 19 C-27.81318274 15.43954823 -27.90310168 12.56191663 -27.9375 8.8125 C-27.94652344 7.54019531 -27.95554688 6.26789062 -27.96484375 4.95703125 C-27.97644531 3.98121094 -27.98804688 3.00539062 -28 2 C-23.4821922 2.48753322 -20.91996974 3.40317376 -17.4375 6.3125 C-16.2928125 7.25222656 -16.2928125 7.25222656 -15.125 8.2109375 C-14.42375 8.80132812 -13.7225 9.39171875 -13 10 C-11.989375 10.804375 -10.97875 11.60875 -9.9375 12.4375 C-9.298125 12.953125 -8.65875 13.46875 -8 14 C-3.16709462 9.950809 -1.6166348 6.03280791 0 0 Z" />
</svg>
